<mxfile host="app.diagrams.net" agent="Mozilla/5.0 (Windows NT 10.0; Win64; x64) AppleWebKit/537.36 (KHTML, like Gecko) Chrome/141.0.0.0 Safari/537.36" version="28.2.6">
  <diagram id="MSGqUDhTczBsjowJqB8m" name="Page-1">
    <mxGraphModel dx="232986" dy="165624" grid="1" gridSize="10" guides="1" tooltips="1" connect="1" arrows="1" fold="1" page="1" pageScale="1" pageWidth="827" pageHeight="1169" math="0" shadow="0">
      <root>
        <mxCell id="0" />
        <mxCell id="1" parent="0" />
        <mxCell id="STGJVAxq6K_NGzFmy3g0-75" style="edgeStyle=orthogonalEdgeStyle;endArrow=block;html=1;" parent="1" edge="1" />
        <mxCell id="STGJVAxq6K_NGzFmy3g0-76" style="edgeStyle=orthogonalEdgeStyle;endArrow=block;html=1;" parent="1" edge="1" />
        <mxCell id="STGJVAxq6K_NGzFmy3g0-77" style="edgeStyle=orthogonalEdgeStyle;endArrow=block;html=1;" parent="1" edge="1" />
        <mxCell id="STGJVAxq6K_NGzFmy3g0-78" style="edgeStyle=orthogonalEdgeStyle;endArrow=block;html=1;" parent="1" edge="1" />
        <mxCell id="STGJVAxq6K_NGzFmy3g0-79" style="edgeStyle=orthogonalEdgeStyle;dashed=1;endArrow=none;html=1;" parent="1" edge="1" />
        <mxCell id="STGJVAxq6K_NGzFmy3g0-80" style="edgeStyle=orthogonalEdgeStyle;dashed=1;endArrow=none;html=1;" parent="1" edge="1" />
        <mxCell id="STGJVAxq6K_NGzFmy3g0-81" style="edgeStyle=orthogonalEdgeStyle;endArrow=diamond;html=1;" parent="1" edge="1" />
        <mxCell id="STGJVAxq6K_NGzFmy3g0-82" style="edgeStyle=orthogonalEdgeStyle;endArrow=diamond;html=1;" parent="1" edge="1" />
        <mxCell id="STGJVAxq6K_NGzFmy3g0-83" style="edgeStyle=orthogonalEdgeStyle;endArrow=diamond;html=1;" parent="1" edge="1" />
        <mxCell id="STGJVAxq6K_NGzFmy3g0-84" style="edgeStyle=orthogonalEdgeStyle;endArrow=block;html=1;" parent="1" edge="1" />
        <mxCell id="STGJVAxq6K_NGzFmy3g0-85" value="onKeyPress(key: string): void" style="text;html=1;whiteSpace=wrap;" parent="1" vertex="1">
          <mxGeometry x="2053" y="1710" width="200" height="40" as="geometry" />
        </mxCell>
        <mxCell id="STGJVAxq6K_NGzFmy3g0-86" style="edgeStyle=orthogonalEdgeStyle;endArrow=block;html=1;" parent="1" edge="1" />
        <mxCell id="STGJVAxq6K_NGzFmy3g0-87" style="edgeStyle=orthogonalEdgeStyle;endArrow=block;html=1;" parent="1" edge="1" />
        <mxCell id="STGJVAxq6K_NGzFmy3g0-88" style="edgeStyle=orthogonalEdgeStyle;endArrow=block;html=1;" parent="1" edge="1" />
        <mxCell id="STGJVAxq6K_NGzFmy3g0-89" style="edgeStyle=orthogonalEdgeStyle;endArrow=block;html=1;" parent="1" edge="1" />
        <mxCell id="STGJVAxq6K_NGzFmy3g0-90" style="edgeStyle=orthogonalEdgeStyle;dashed=1;endArrow=block;html=1;" parent="1" edge="1" />
        <mxCell id="STGJVAxq6K_NGzFmy3g0-91" style="edgeStyle=orthogonalEdgeStyle;dashed=1;endArrow=block;html=1;" parent="1" edge="1" />
        <mxCell id="STGJVAxq6K_NGzFmy3g0-92" style="edgeStyle=orthogonalEdgeStyle;dashed=1;endArrow=block;html=1;" parent="1" edge="1" />
        <mxCell id="STGJVAxq6K_NGzFmy3g0-93" style="edgeStyle=orthogonalEdgeStyle;dashed=1;endArrow=block;html=1;" parent="1" edge="1" />
        <mxCell id="STGJVAxq6K_NGzFmy3g0-94" style="edgeStyle=orthogonalEdgeStyle;endArrow=open;html=1;dashed=1;" parent="1" edge="1" />
        <mxCell id="STGJVAxq6K_NGzFmy3g0-95" style="edgeStyle=orthogonalEdgeStyle;endArrow=open;html=1;dashed=1;" parent="1" edge="1" />
        <mxCell id="STGJVAxq6K_NGzFmy3g0-96" style="edgeStyle=orthogonalEdgeStyle;endArrow=open;html=1;dashed=1;" parent="1" edge="1" />
        <mxCell id="STGJVAxq6K_NGzFmy3g0-97" value="&amp;nbsp;IMovable" style="shape=swimlane;fontStyle=1;html=1;startSize=20;" parent="1" vertex="1">
          <mxGeometry x="-87" y="410" width="200" height="90" as="geometry" />
        </mxCell>
        <mxCell id="STGJVAxq6K_NGzFmy3g0-98" value="moveLeft(): void&lt;div&gt;moveRight(): void&lt;/div&gt;&lt;div&gt;moveDown(): void&lt;/div&gt;&lt;div&gt;rotate(): void&lt;/div&gt;" style="text;html=1;whiteSpace=wrap;" parent="STGJVAxq6K_NGzFmy3g0-97" vertex="1">
          <mxGeometry y="20" width="200" height="60" as="geometry" />
        </mxCell>
        <mxCell id="STGJVAxq6K_NGzFmy3g0-99" value="IDrawable" style="shape=swimlane;fontStyle=1;html=1;startSize=20;" parent="1" vertex="1">
          <mxGeometry x="-257" y="340" width="200" height="60" as="geometry" />
        </mxCell>
        <mxCell id="STGJVAxq6K_NGzFmy3g0-100" value="draw(): void" style="text;html=1;whiteSpace=wrap;" parent="STGJVAxq6K_NGzFmy3g0-99" vertex="1">
          <mxGeometry y="20" width="200" height="40" as="geometry" />
        </mxCell>
        <mxCell id="STGJVAxq6K_NGzFmy3g0-101" value="ICollidable" style="shape=swimlane;fontStyle=1;html=1;startSize=20;" parent="1" vertex="1">
          <mxGeometry x="453" y="530" width="200" height="60" as="geometry" />
        </mxCell>
        <mxCell id="STGJVAxq6K_NGzFmy3g0-102" value="checkCollision(): boolean" style="text;html=1;whiteSpace=wrap;" parent="STGJVAxq6K_NGzFmy3g0-101" vertex="1">
          <mxGeometry y="20" width="200" height="40" as="geometry" />
        </mxCell>
        <mxCell id="STGJVAxq6K_NGzFmy3g0-103" value="Block" style="shape=swimlane;fontStyle=0;html=1;startSize=20;" parent="1" vertex="1">
          <mxGeometry x="-500" y="510" width="200" height="120" as="geometry" />
        </mxCell>
        <mxCell id="STGJVAxq6K_NGzFmy3g0-104" value="x: int&lt;div&gt;y: int&lt;/div&gt;&lt;div&gt;color: Color&lt;/div&gt;" style="text;html=1;whiteSpace=wrap;" parent="STGJVAxq6K_NGzFmy3g0-103" vertex="1">
          <mxGeometry y="20" width="200" height="40" as="geometry" />
        </mxCell>
        <mxCell id="STGJVAxq6K_NGzFmy3g0-105" value="draw(): void&lt;div&gt;setPosition(x: int, y: int): void&lt;/div&gt;" style="text;html=1;whiteSpace=wrap;" parent="STGJVAxq6K_NGzFmy3g0-103" vertex="1">
          <mxGeometry y="70" width="200" height="40" as="geometry" />
        </mxCell>
        <mxCell id="STGJVAxq6K_NGzFmy3g0-106" value="Shape" style="shape=swimlane;fontStyle=2;html=1;startSize=20;" parent="1" vertex="1">
          <mxGeometry x="23" y="530" width="220" height="210" as="geometry" />
        </mxCell>
        <mxCell id="STGJVAxq6K_NGzFmy3g0-107" value="positionX: int&lt;div&gt;positionY: int&lt;/div&gt;&lt;div&gt;rotation: int&lt;/div&gt;&lt;div&gt;blocks: Block[4]&lt;/div&gt;&lt;div&gt;color: Color&lt;/div&gt;" style="text;html=1;whiteSpace=wrap;" parent="STGJVAxq6K_NGzFmy3g0-106" vertex="1">
          <mxGeometry y="20" width="220" height="60" as="geometry" />
        </mxCell>
        <mxCell id="STGJVAxq6K_NGzFmy3g0-108" value="moveLeft(): void&lt;div&gt;moveRight(): void&lt;/div&gt;&lt;div&gt;moveDown(): void&lt;/div&gt;&lt;div&gt;rotate(): void\ndraw(): void&lt;/div&gt;&lt;div&gt;checkCollision(): boolean&lt;/div&gt;&lt;div&gt;getBlocks(): Block[]&lt;/div&gt;" style="text;html=1;whiteSpace=wrap;" parent="STGJVAxq6K_NGzFmy3g0-106" vertex="1">
          <mxGeometry y="100" width="220" height="60" as="geometry" />
        </mxCell>
        <mxCell id="STGJVAxq6K_NGzFmy3g0-109" value="LShape" style="shape=swimlane;fontStyle=0;html=1;startSize=20;" parent="1" vertex="1">
          <mxGeometry x="-197" y="680" width="160" height="80" as="geometry" />
        </mxCell>
        <mxCell id="STGJVAxq6K_NGzFmy3g0-110" value="LShape()&lt;div&gt;rotate(): void&lt;/div&gt;&lt;div&gt;getBlocks(): Block[]&lt;/div&gt;" style="text;html=1;whiteSpace=wrap;" parent="STGJVAxq6K_NGzFmy3g0-109" vertex="1">
          <mxGeometry y="20" width="160" height="60" as="geometry" />
        </mxCell>
        <mxCell id="STGJVAxq6K_NGzFmy3g0-111" value="TShape" style="shape=swimlane;fontStyle=0;html=1;startSize=20;" parent="1" vertex="1">
          <mxGeometry x="-167" y="830" width="160" height="80" as="geometry" />
        </mxCell>
        <mxCell id="STGJVAxq6K_NGzFmy3g0-112" value="TShape()&lt;div&gt;rotate(): void&lt;/div&gt;&lt;div&gt;getBlocks(): Block[]&lt;/div&gt;" style="text;html=1;whiteSpace=wrap;" parent="STGJVAxq6K_NGzFmy3g0-111" vertex="1">
          <mxGeometry y="20" width="160" height="60" as="geometry" />
        </mxCell>
        <mxCell id="STGJVAxq6K_NGzFmy3g0-113" value="OShape" style="shape=swimlane;fontStyle=0;html=1;startSize=20;" parent="1" vertex="1">
          <mxGeometry x="163" y="790" width="160" height="80" as="geometry" />
        </mxCell>
        <mxCell id="STGJVAxq6K_NGzFmy3g0-114" value="OShape()&lt;div&gt;getBlocks(): Block[]&lt;/div&gt;" style="text;html=1;whiteSpace=wrap;" parent="STGJVAxq6K_NGzFmy3g0-113" vertex="1">
          <mxGeometry y="20" width="160" height="60" as="geometry" />
        </mxCell>
        <mxCell id="STGJVAxq6K_NGzFmy3g0-115" value="IShape" style="shape=swimlane;fontStyle=0;html=1;startSize=20;" parent="1" vertex="1">
          <mxGeometry x="353" y="880" width="160" height="80" as="geometry" />
        </mxCell>
        <mxCell id="STGJVAxq6K_NGzFmy3g0-116" value="IShape()&lt;div&gt;rotate(): void&lt;/div&gt;&lt;div&gt;getBlocks(): Block[]&lt;/div&gt;" style="text;html=1;whiteSpace=wrap;" parent="STGJVAxq6K_NGzFmy3g0-115" vertex="1">
          <mxGeometry y="20" width="160" height="60" as="geometry" />
        </mxCell>
        <mxCell id="STGJVAxq6K_NGzFmy3g0-117" value="Board" style="shape=swimlane;fontStyle=0;html=1;startSize=20;" parent="1" vertex="1">
          <mxGeometry x="-487" y="760" width="220" height="160" as="geometry" />
        </mxCell>
        <mxCell id="STGJVAxq6K_NGzFmy3g0-118" value="width: int\nheight: int&lt;div&gt;grid: Block[][]&lt;/div&gt;&lt;div&gt;staticBlocks: Block[]&lt;/div&gt;" style="text;html=1;whiteSpace=wrap;" parent="STGJVAxq6K_NGzFmy3g0-117" vertex="1">
          <mxGeometry y="20" width="220" height="50" as="geometry" />
        </mxCell>
        <mxCell id="STGJVAxq6K_NGzFmy3g0-119" value="addShape(shape: Shape): void&lt;div&gt;removeCompletedLines(): int&lt;/div&gt;&lt;div&gt;checkCollision(shape: Shape): boolean&lt;/div&gt;&lt;div&gt;draw(): void&lt;/div&gt;&lt;div&gt;clear(): void&lt;/div&gt;" style="text;html=1;whiteSpace=wrap;" parent="STGJVAxq6K_NGzFmy3g0-117" vertex="1">
          <mxGeometry y="70" width="220" height="50" as="geometry" />
        </mxCell>
        <mxCell id="STGJVAxq6K_NGzFmy3g0-120" value="GameManager" style="shape=swimlane;fontStyle=0;html=1;startSize=20;" parent="1" vertex="1">
          <mxGeometry x="73" y="1170" width="220" height="220" as="geometry" />
        </mxCell>
        <mxCell id="STGJVAxq6K_NGzFmy3g0-121" value="currentShape: Shape&lt;div&gt;nextShape: Shape&lt;/div&gt;&lt;div&gt;board: Board&lt;/div&gt;&lt;div&gt;score: int\nlevel: int&lt;/div&gt;&lt;div&gt;isGameOver: boolean&lt;/div&gt;&lt;div&gt;isPaused: boolean&lt;/div&gt;" style="text;html=1;whiteSpace=wrap;" parent="STGJVAxq6K_NGzFmy3g0-120" vertex="1">
          <mxGeometry y="20" width="220" height="60" as="geometry" />
        </mxCell>
        <mxCell id="STGJVAxq6K_NGzFmy3g0-122" value="start(): void&lt;div&gt;update(): void&lt;/div&gt;&lt;div&gt;pause(): void&lt;/div&gt;&lt;div&gt;resume(): void&lt;/div&gt;&lt;div&gt;gameOver(): void&lt;/div&gt;&lt;div&gt;spawnNewShape(): void&lt;/div&gt;" style="text;html=1;whiteSpace=wrap;" parent="STGJVAxq6K_NGzFmy3g0-120" vertex="1">
          <mxGeometry y="120" width="220" height="40" as="geometry" />
        </mxCell>
        <mxCell id="STGJVAxq6K_NGzFmy3g0-123" value="InputHandler" style="shape=swimlane;fontStyle=0;html=1;startSize=20;" parent="1" vertex="1">
          <mxGeometry x="513" y="980" width="200" height="80" as="geometry" />
        </mxCell>
        <mxCell id="STGJVAxq6K_NGzFmy3g0-124" value="handleInput(): void&lt;div&gt;onKeyPress(key: string): void&lt;/div&gt;&lt;div&gt;bindKeys(): void&lt;/div&gt;" style="text;html=1;whiteSpace=wrap;" parent="STGJVAxq6K_NGzFmy3g0-123" vertex="1">
          <mxGeometry y="20" width="200" height="60" as="geometry" />
        </mxCell>
        <mxCell id="STGJVAxq6K_NGzFmy3g0-125" value="ScoreBoard" style="shape=swimlane;fontStyle=0;html=1;startSize=20;" parent="1" vertex="1">
          <mxGeometry x="-227" y="1190" width="180" height="120" as="geometry" />
        </mxCell>
        <mxCell id="STGJVAxq6K_NGzFmy3g0-126" value="score: int\nlevel: int\nlines: int" style="text;html=1;whiteSpace=wrap;" parent="STGJVAxq6K_NGzFmy3g0-125" vertex="1">
          <mxGeometry y="20" width="180" height="40" as="geometry" />
        </mxCell>
        <mxCell id="STGJVAxq6K_NGzFmy3g0-127" value="updateScore(lines: int): void\nincreaseLevel(): void\ndraw(): void" style="text;html=1;whiteSpace=wrap;" parent="STGJVAxq6K_NGzFmy3g0-125" vertex="1">
          <mxGeometry y="60" width="180" height="20" as="geometry" />
        </mxCell>
        <mxCell id="STGJVAxq6K_NGzFmy3g0-128" value="NextShapePreview" style="shape=swimlane;fontStyle=0;html=1;startSize=20;" parent="1" vertex="1">
          <mxGeometry x="-37" y="960" width="200" height="90" as="geometry" />
        </mxCell>
        <mxCell id="STGJVAxq6K_NGzFmy3g0-129" value="nextShape: Shape" style="text;html=1;whiteSpace=wrap;" parent="STGJVAxq6K_NGzFmy3g0-128" vertex="1">
          <mxGeometry y="20" width="200" height="40" as="geometry" />
        </mxCell>
        <mxCell id="STGJVAxq6K_NGzFmy3g0-130" value="setNextShape(shape: Shape): void&lt;div&gt;draw(): void&lt;/div&gt;" style="text;html=1;whiteSpace=wrap;" parent="STGJVAxq6K_NGzFmy3g0-128" vertex="1">
          <mxGeometry y="50" width="200" height="20" as="geometry" />
        </mxCell>
        <mxCell id="STGJVAxq6K_NGzFmy3g0-131" value="ShapeFactory" style="shape=swimlane;fontStyle=0;html=1;startSize=20;" parent="1" vertex="1">
          <mxGeometry x="393" y="1200" width="180" height="50" as="geometry" />
        </mxCell>
        <mxCell id="STGJVAxq6K_NGzFmy3g0-132" value="createRandomShape(): Shape" style="text;html=1;whiteSpace=wrap;" parent="STGJVAxq6K_NGzFmy3g0-131" vertex="1">
          <mxGeometry y="20" width="180" height="30" as="geometry" />
        </mxCell>
        <mxCell id="STGJVAxq6K_NGzFmy3g0-133" style="edgeStyle=orthogonalEdgeStyle;endArrow=block;html=1;" parent="1" source="STGJVAxq6K_NGzFmy3g0-106" target="STGJVAxq6K_NGzFmy3g0-109" edge="1">
          <mxGeometry relative="1" as="geometry">
            <mxPoint x="113" y="860" as="sourcePoint" />
            <mxPoint x="-167" y="920" as="targetPoint" />
          </mxGeometry>
        </mxCell>
        <mxCell id="STGJVAxq6K_NGzFmy3g0-134" style="edgeStyle=orthogonalEdgeStyle;endArrow=block;html=1;" parent="1" source="STGJVAxq6K_NGzFmy3g0-106" target="STGJVAxq6K_NGzFmy3g0-111" edge="1">
          <mxGeometry relative="1" as="geometry">
            <mxPoint x="113" y="860" as="sourcePoint" />
            <mxPoint x="33" y="920" as="targetPoint" />
            <Array as="points">
              <mxPoint x="123" y="770" />
              <mxPoint x="-87" y="770" />
            </Array>
          </mxGeometry>
        </mxCell>
        <mxCell id="STGJVAxq6K_NGzFmy3g0-135" style="edgeStyle=orthogonalEdgeStyle;endArrow=block;html=1;" parent="1" source="STGJVAxq6K_NGzFmy3g0-106" target="STGJVAxq6K_NGzFmy3g0-113" edge="1">
          <mxGeometry relative="1" as="geometry">
            <mxPoint x="113" y="860" as="sourcePoint" />
            <mxPoint x="233" y="920" as="targetPoint" />
          </mxGeometry>
        </mxCell>
        <mxCell id="STGJVAxq6K_NGzFmy3g0-136" style="edgeStyle=orthogonalEdgeStyle;endArrow=block;html=1;" parent="1" source="STGJVAxq6K_NGzFmy3g0-106" target="STGJVAxq6K_NGzFmy3g0-115" edge="1">
          <mxGeometry relative="1" as="geometry">
            <mxPoint x="113" y="860" as="sourcePoint" />
            <mxPoint x="433" y="920" as="targetPoint" />
          </mxGeometry>
        </mxCell>
        <mxCell id="STGJVAxq6K_NGzFmy3g0-137" style="edgeStyle=orthogonalEdgeStyle;dashed=1;endArrow=block;html=1;" parent="1" source="STGJVAxq6K_NGzFmy3g0-97" target="STGJVAxq6K_NGzFmy3g0-106" edge="1">
          <mxGeometry relative="1" as="geometry">
            <mxPoint x="-147" y="690" as="sourcePoint" />
            <mxPoint x="113" y="720" as="targetPoint" />
          </mxGeometry>
        </mxCell>
        <mxCell id="STGJVAxq6K_NGzFmy3g0-138" style="edgeStyle=orthogonalEdgeStyle;dashed=1;endArrow=block;html=1;" parent="1" source="STGJVAxq6K_NGzFmy3g0-99" target="STGJVAxq6K_NGzFmy3g0-106" edge="1">
          <mxGeometry relative="1" as="geometry">
            <mxPoint x="103" y="670" as="sourcePoint" />
            <mxPoint x="113" y="720" as="targetPoint" />
            <Array as="points">
              <mxPoint x="153" y="370" />
            </Array>
          </mxGeometry>
        </mxCell>
        <mxCell id="STGJVAxq6K_NGzFmy3g0-139" style="edgeStyle=orthogonalEdgeStyle;dashed=1;endArrow=block;html=1;" parent="1" source="STGJVAxq6K_NGzFmy3g0-99" target="STGJVAxq6K_NGzFmy3g0-103" edge="1">
          <mxGeometry relative="1" as="geometry">
            <mxPoint x="103" y="670" as="sourcePoint" />
            <mxPoint x="-147" y="720" as="targetPoint" />
          </mxGeometry>
        </mxCell>
        <mxCell id="STGJVAxq6K_NGzFmy3g0-140" style="edgeStyle=orthogonalEdgeStyle;dashed=1;endArrow=block;html=1;" parent="1" source="STGJVAxq6K_NGzFmy3g0-101" target="STGJVAxq6K_NGzFmy3g0-106" edge="1">
          <mxGeometry relative="1" as="geometry">
            <mxPoint x="353" y="670" as="sourcePoint" />
            <mxPoint x="113" y="720" as="targetPoint" />
          </mxGeometry>
        </mxCell>
        <mxCell id="STGJVAxq6K_NGzFmy3g0-141" style="edgeStyle=orthogonalEdgeStyle;endArrow=diamond;html=1;" parent="1" source="STGJVAxq6K_NGzFmy3g0-120" target="STGJVAxq6K_NGzFmy3g0-117" edge="1">
          <mxGeometry relative="1" as="geometry">
            <mxPoint x="133" y="1060" as="sourcePoint" />
            <mxPoint x="-137" y="1060" as="targetPoint" />
            <Array as="points">
              <mxPoint x="183" y="1160" />
              <mxPoint x="-377" y="1160" />
            </Array>
          </mxGeometry>
        </mxCell>
        <mxCell id="STGJVAxq6K_NGzFmy3g0-142" style="edgeStyle=orthogonalEdgeStyle;endArrow=diamond;html=1;" parent="1" source="STGJVAxq6K_NGzFmy3g0-120" target="STGJVAxq6K_NGzFmy3g0-125" edge="1">
          <mxGeometry relative="1" as="geometry">
            <mxPoint x="133" y="1060" as="sourcePoint" />
            <mxPoint x="-157" y="1200" as="targetPoint" />
          </mxGeometry>
        </mxCell>
        <mxCell id="STGJVAxq6K_NGzFmy3g0-143" style="edgeStyle=orthogonalEdgeStyle;endArrow=diamond;html=1;" parent="1" source="STGJVAxq6K_NGzFmy3g0-120" target="STGJVAxq6K_NGzFmy3g0-128" edge="1">
          <mxGeometry relative="1" as="geometry">
            <mxPoint x="133" y="1060" as="sourcePoint" />
            <mxPoint x="73" y="1200" as="targetPoint" />
          </mxGeometry>
        </mxCell>
        <mxCell id="STGJVAxq6K_NGzFmy3g0-144" style="edgeStyle=orthogonalEdgeStyle;endArrow=open;html=1;" parent="1" source="STGJVAxq6K_NGzFmy3g0-106" target="STGJVAxq6K_NGzFmy3g0-103" edge="1">
          <mxGeometry relative="1" as="geometry">
            <mxPoint x="3" y="770" as="sourcePoint" />
            <mxPoint x="-147" y="770" as="targetPoint" />
          </mxGeometry>
        </mxCell>
        <mxCell id="STGJVAxq6K_NGzFmy3g0-145" style="edgeStyle=orthogonalEdgeStyle;endArrow=open;html=1;" parent="1" source="STGJVAxq6K_NGzFmy3g0-117" target="STGJVAxq6K_NGzFmy3g0-103" edge="1">
          <mxGeometry relative="1" as="geometry">
            <mxPoint x="-137" y="1060" as="sourcePoint" />
            <mxPoint x="-147" y="820" as="targetPoint" />
          </mxGeometry>
        </mxCell>
        <mxCell id="STGJVAxq6K_NGzFmy3g0-146" style="edgeStyle=orthogonalEdgeStyle;endArrow=open;html=1;dashed=1;" parent="1" source="STGJVAxq6K_NGzFmy3g0-123" target="STGJVAxq6K_NGzFmy3g0-120" edge="1">
          <mxGeometry relative="1" as="geometry">
            <mxPoint x="393" y="1040" as="sourcePoint" />
            <mxPoint x="243" y="1060" as="targetPoint" />
          </mxGeometry>
        </mxCell>
        <mxCell id="STGJVAxq6K_NGzFmy3g0-147" style="edgeStyle=orthogonalEdgeStyle;endArrow=open;html=1;dashed=1;" parent="1" source="STGJVAxq6K_NGzFmy3g0-120" target="STGJVAxq6K_NGzFmy3g0-131" edge="1">
          <mxGeometry relative="1" as="geometry">
            <mxPoint x="243" y="1060" as="sourcePoint" />
            <mxPoint x="303" y="1190" as="targetPoint" />
          </mxGeometry>
        </mxCell>
        <mxCell id="STGJVAxq6K_NGzFmy3g0-148" style="edgeStyle=orthogonalEdgeStyle;endArrow=open;html=1;dashed=1;" parent="1" source="STGJVAxq6K_NGzFmy3g0-128" target="STGJVAxq6K_NGzFmy3g0-106" edge="1">
          <mxGeometry relative="1" as="geometry">
            <mxPoint x="73" y="1200" as="sourcePoint" />
            <mxPoint x="113" y="860" as="targetPoint" />
          </mxGeometry>
        </mxCell>
        <mxCell id="h4ecDFKgE0Bomy6enVEB-1" value="Book" style="swimlane;fontStyle=1;align=center;verticalAlign=top;childLayout=stackLayout;horizontal=1;startSize=26;horizontalStack=0;resizeParent=1;resizeParentMax=0;resizeLast=0;collapsible=1;marginBottom=0;whiteSpace=wrap;html=1;" vertex="1" parent="1">
          <mxGeometry x="-5820" y="-2120" width="160" height="306" as="geometry" />
        </mxCell>
        <mxCell id="h4ecDFKgE0Bomy6enVEB-2" value="title: String" style="text;strokeColor=none;fillColor=none;align=left;verticalAlign=top;spacingLeft=4;spacingRight=4;overflow=hidden;rotatable=0;points=[[0,0.5],[1,0.5]];portConstraint=eastwest;whiteSpace=wrap;html=1;" vertex="1" parent="h4ecDFKgE0Bomy6enVEB-1">
          <mxGeometry y="26" width="160" height="26" as="geometry" />
        </mxCell>
        <mxCell id="h4ecDFKgE0Bomy6enVEB-5" value="available: boolean" style="text;strokeColor=none;fillColor=none;align=left;verticalAlign=top;spacingLeft=4;spacingRight=4;overflow=hidden;rotatable=0;points=[[0,0.5],[1,0.5]];portConstraint=eastwest;whiteSpace=wrap;html=1;" vertex="1" parent="h4ecDFKgE0Bomy6enVEB-1">
          <mxGeometry y="52" width="160" height="26" as="geometry" />
        </mxCell>
        <mxCell id="h4ecDFKgE0Bomy6enVEB-3" value="" style="line;strokeWidth=1;fillColor=none;align=left;verticalAlign=middle;spacingTop=-1;spacingLeft=3;spacingRight=3;rotatable=0;labelPosition=right;points=[];portConstraint=eastwest;strokeColor=inherit;" vertex="1" parent="h4ecDFKgE0Bomy6enVEB-1">
          <mxGeometry y="78" width="160" height="8" as="geometry" />
        </mxCell>
        <mxCell id="h4ecDFKgE0Bomy6enVEB-4" value="Book(title: String, available: boolean)" style="text;strokeColor=none;fillColor=none;align=left;verticalAlign=top;spacingLeft=4;spacingRight=4;overflow=hidden;rotatable=0;points=[[0,0.5],[1,0.5]];portConstraint=eastwest;whiteSpace=wrap;html=1;" vertex="1" parent="h4ecDFKgE0Bomy6enVEB-1">
          <mxGeometry y="86" width="160" height="44" as="geometry" />
        </mxCell>
        <mxCell id="h4ecDFKgE0Bomy6enVEB-7" value="getTitle(): String" style="text;strokeColor=none;fillColor=none;align=left;verticalAlign=top;spacingLeft=4;spacingRight=4;overflow=hidden;rotatable=0;points=[[0,0.5],[1,0.5]];portConstraint=eastwest;whiteSpace=wrap;html=1;" vertex="1" parent="h4ecDFKgE0Bomy6enVEB-1">
          <mxGeometry y="130" width="160" height="44" as="geometry" />
        </mxCell>
        <mxCell id="h4ecDFKgE0Bomy6enVEB-9" value="isAvailable(): boolean" style="text;strokeColor=none;fillColor=none;align=left;verticalAlign=top;spacingLeft=4;spacingRight=4;overflow=hidden;rotatable=0;points=[[0,0.5],[1,0.5]];portConstraint=eastwest;whiteSpace=wrap;html=1;" vertex="1" parent="h4ecDFKgE0Bomy6enVEB-1">
          <mxGeometry y="174" width="160" height="44" as="geometry" />
        </mxCell>
        <mxCell id="h4ecDFKgE0Bomy6enVEB-11" value="setAvailable(available: boolean): void" style="text;strokeColor=none;fillColor=none;align=left;verticalAlign=top;spacingLeft=4;spacingRight=4;overflow=hidden;rotatable=0;points=[[0,0.5],[1,0.5]];portConstraint=eastwest;whiteSpace=wrap;html=1;" vertex="1" parent="h4ecDFKgE0Bomy6enVEB-1">
          <mxGeometry y="218" width="160" height="44" as="geometry" />
        </mxCell>
        <mxCell id="h4ecDFKgE0Bomy6enVEB-12" value="toString(): String" style="text;strokeColor=none;fillColor=none;align=left;verticalAlign=top;spacingLeft=4;spacingRight=4;overflow=hidden;rotatable=0;points=[[0,0.5],[1,0.5]];portConstraint=eastwest;whiteSpace=wrap;html=1;" vertex="1" parent="h4ecDFKgE0Bomy6enVEB-1">
          <mxGeometry y="262" width="160" height="44" as="geometry" />
        </mxCell>
        <mxCell id="h4ecDFKgE0Bomy6enVEB-13" value="Order" style="swimlane;fontStyle=1;align=center;verticalAlign=top;childLayout=stackLayout;horizontal=1;startSize=26;horizontalStack=0;resizeParent=1;resizeParentMax=0;resizeLast=0;collapsible=1;marginBottom=0;whiteSpace=wrap;html=1;" vertex="1" parent="1">
          <mxGeometry x="-5010" y="-2260" width="160" height="250" as="geometry" />
        </mxCell>
        <mxCell id="h4ecDFKgE0Bomy6enVEB-14" value="book: Book" style="text;strokeColor=none;fillColor=none;align=left;verticalAlign=top;spacingLeft=4;spacingRight=4;overflow=hidden;rotatable=0;points=[[0,0.5],[1,0.5]];portConstraint=eastwest;whiteSpace=wrap;html=1;" vertex="1" parent="h4ecDFKgE0Bomy6enVEB-13">
          <mxGeometry y="26" width="160" height="26" as="geometry" />
        </mxCell>
        <mxCell id="h4ecDFKgE0Bomy6enVEB-17" value="status: String" style="text;strokeColor=none;fillColor=none;align=left;verticalAlign=top;spacingLeft=4;spacingRight=4;overflow=hidden;rotatable=0;points=[[0,0.5],[1,0.5]];portConstraint=eastwest;whiteSpace=wrap;html=1;" vertex="1" parent="h4ecDFKgE0Bomy6enVEB-13">
          <mxGeometry y="52" width="160" height="26" as="geometry" />
        </mxCell>
        <mxCell id="h4ecDFKgE0Bomy6enVEB-15" value="" style="line;strokeWidth=1;fillColor=none;align=left;verticalAlign=middle;spacingTop=-1;spacingLeft=3;spacingRight=3;rotatable=0;labelPosition=right;points=[];portConstraint=eastwest;strokeColor=inherit;" vertex="1" parent="h4ecDFKgE0Bomy6enVEB-13">
          <mxGeometry y="78" width="160" height="8" as="geometry" />
        </mxCell>
        <mxCell id="h4ecDFKgE0Bomy6enVEB-16" value="Order(book: Book)" style="text;strokeColor=none;fillColor=none;align=left;verticalAlign=top;spacingLeft=4;spacingRight=4;overflow=hidden;rotatable=0;points=[[0,0.5],[1,0.5]];portConstraint=eastwest;whiteSpace=wrap;html=1;" vertex="1" parent="h4ecDFKgE0Bomy6enVEB-13">
          <mxGeometry y="86" width="160" height="26" as="geometry" />
        </mxCell>
        <mxCell id="h4ecDFKgE0Bomy6enVEB-18" value="getBook(): Book" style="text;strokeColor=none;fillColor=none;align=left;verticalAlign=top;spacingLeft=4;spacingRight=4;overflow=hidden;rotatable=0;points=[[0,0.5],[1,0.5]];portConstraint=eastwest;whiteSpace=wrap;html=1;" vertex="1" parent="h4ecDFKgE0Bomy6enVEB-13">
          <mxGeometry y="112" width="160" height="26" as="geometry" />
        </mxCell>
        <mxCell id="h4ecDFKgE0Bomy6enVEB-19" value="getStatus(): String" style="text;strokeColor=none;fillColor=none;align=left;verticalAlign=top;spacingLeft=4;spacingRight=4;overflow=hidden;rotatable=0;points=[[0,0.5],[1,0.5]];portConstraint=eastwest;whiteSpace=wrap;html=1;" vertex="1" parent="h4ecDFKgE0Bomy6enVEB-13">
          <mxGeometry y="138" width="160" height="26" as="geometry" />
        </mxCell>
        <mxCell id="h4ecDFKgE0Bomy6enVEB-20" value="setStatus(status: String): void" style="text;strokeColor=none;fillColor=none;align=left;verticalAlign=top;spacingLeft=4;spacingRight=4;overflow=hidden;rotatable=0;points=[[0,0.5],[1,0.5]];portConstraint=eastwest;whiteSpace=wrap;html=1;" vertex="1" parent="h4ecDFKgE0Bomy6enVEB-13">
          <mxGeometry y="164" width="160" height="46" as="geometry" />
        </mxCell>
        <mxCell id="h4ecDFKgE0Bomy6enVEB-21" value="toString(): String" style="text;strokeColor=none;fillColor=none;align=left;verticalAlign=top;spacingLeft=4;spacingRight=4;overflow=hidden;rotatable=0;points=[[0,0.5],[1,0.5]];portConstraint=eastwest;whiteSpace=wrap;html=1;" vertex="1" parent="h4ecDFKgE0Bomy6enVEB-13">
          <mxGeometry y="210" width="160" height="40" as="geometry" />
        </mxCell>
        <mxCell id="h4ecDFKgE0Bomy6enVEB-22" value="Request" style="swimlane;fontStyle=1;align=center;verticalAlign=top;childLayout=stackLayout;horizontal=1;startSize=26;horizontalStack=0;resizeParent=1;resizeParentMax=0;resizeLast=0;collapsible=1;marginBottom=0;whiteSpace=wrap;html=1;" vertex="1" parent="1">
          <mxGeometry x="-5160" y="-1730" width="160" height="112" as="geometry" />
        </mxCell>
        <mxCell id="h4ecDFKgE0Bomy6enVEB-23" value="book: Book" style="text;strokeColor=none;fillColor=none;align=left;verticalAlign=top;spacingLeft=4;spacingRight=4;overflow=hidden;rotatable=0;points=[[0,0.5],[1,0.5]];portConstraint=eastwest;whiteSpace=wrap;html=1;" vertex="1" parent="h4ecDFKgE0Bomy6enVEB-22">
          <mxGeometry y="26" width="160" height="26" as="geometry" />
        </mxCell>
        <mxCell id="h4ecDFKgE0Bomy6enVEB-24" value="" style="line;strokeWidth=1;fillColor=none;align=left;verticalAlign=middle;spacingTop=-1;spacingLeft=3;spacingRight=3;rotatable=0;labelPosition=right;points=[];portConstraint=eastwest;strokeColor=inherit;" vertex="1" parent="h4ecDFKgE0Bomy6enVEB-22">
          <mxGeometry y="52" width="160" height="8" as="geometry" />
        </mxCell>
        <mxCell id="h4ecDFKgE0Bomy6enVEB-25" value="Request(book: Book)" style="text;strokeColor=none;fillColor=none;align=left;verticalAlign=top;spacingLeft=4;spacingRight=4;overflow=hidden;rotatable=0;points=[[0,0.5],[1,0.5]];portConstraint=eastwest;whiteSpace=wrap;html=1;" vertex="1" parent="h4ecDFKgE0Bomy6enVEB-22">
          <mxGeometry y="60" width="160" height="26" as="geometry" />
        </mxCell>
        <mxCell id="h4ecDFKgE0Bomy6enVEB-26" value="getBook(): Book" style="text;strokeColor=none;fillColor=none;align=left;verticalAlign=top;spacingLeft=4;spacingRight=4;overflow=hidden;rotatable=0;points=[[0,0.5],[1,0.5]];portConstraint=eastwest;whiteSpace=wrap;html=1;" vertex="1" parent="h4ecDFKgE0Bomy6enVEB-22">
          <mxGeometry y="86" width="160" height="26" as="geometry" />
        </mxCell>
        <mxCell id="h4ecDFKgE0Bomy6enVEB-40" style="edgeStyle=orthogonalEdgeStyle;rounded=0;orthogonalLoop=1;jettySize=auto;html=1;entryX=0.5;entryY=0;entryDx=0;entryDy=0;exitX=0.5;exitY=0;exitDx=0;exitDy=0;endArrow=ERmany;endFill=0;strokeWidth=2;" edge="1" parent="1" source="h4ecDFKgE0Bomy6enVEB-27" target="h4ecDFKgE0Bomy6enVEB-1">
          <mxGeometry relative="1" as="geometry">
            <mxPoint x="-5440" y="-2050" as="sourcePoint" />
          </mxGeometry>
        </mxCell>
        <mxCell id="h4ecDFKgE0Bomy6enVEB-41" style="edgeStyle=orthogonalEdgeStyle;rounded=0;orthogonalLoop=1;jettySize=auto;html=1;exitX=0.5;exitY=0;exitDx=0;exitDy=0;entryX=0.5;entryY=0;entryDx=0;entryDy=0;strokeWidth=2;endArrow=ERmany;endFill=0;" edge="1" parent="1" source="h4ecDFKgE0Bomy6enVEB-27" target="h4ecDFKgE0Bomy6enVEB-13">
          <mxGeometry relative="1" as="geometry" />
        </mxCell>
        <mxCell id="h4ecDFKgE0Bomy6enVEB-42" style="edgeStyle=orthogonalEdgeStyle;rounded=0;orthogonalLoop=1;jettySize=auto;html=1;exitX=0.5;exitY=0;exitDx=0;exitDy=0;entryX=0.5;entryY=0;entryDx=0;entryDy=0;endArrow=ERmany;endFill=0;strokeWidth=2;" edge="1" parent="1" source="h4ecDFKgE0Bomy6enVEB-27" target="h4ecDFKgE0Bomy6enVEB-22">
          <mxGeometry relative="1" as="geometry" />
        </mxCell>
        <mxCell id="h4ecDFKgE0Bomy6enVEB-27" value="BookStore" style="swimlane;fontStyle=1;align=center;verticalAlign=top;childLayout=stackLayout;horizontal=1;startSize=26;horizontalStack=0;resizeParent=1;resizeParentMax=0;resizeLast=0;collapsible=1;marginBottom=0;whiteSpace=wrap;html=1;" vertex="1" parent="1">
          <mxGeometry x="-5535" y="-2190" width="160" height="440" as="geometry" />
        </mxCell>
        <mxCell id="h4ecDFKgE0Bomy6enVEB-28" value="books: List&amp;lt;Book&amp;gt;" style="text;strokeColor=none;fillColor=none;align=left;verticalAlign=top;spacingLeft=4;spacingRight=4;overflow=hidden;rotatable=0;points=[[0,0.5],[1,0.5]];portConstraint=eastwest;whiteSpace=wrap;html=1;" vertex="1" parent="h4ecDFKgE0Bomy6enVEB-27">
          <mxGeometry y="26" width="160" height="26" as="geometry" />
        </mxCell>
        <mxCell id="h4ecDFKgE0Bomy6enVEB-31" value="requests: List&amp;lt;Request&amp;gt;" style="text;strokeColor=none;fillColor=none;align=left;verticalAlign=top;spacingLeft=4;spacingRight=4;overflow=hidden;rotatable=0;points=[[0,0.5],[1,0.5]];portConstraint=eastwest;whiteSpace=wrap;html=1;" vertex="1" parent="h4ecDFKgE0Bomy6enVEB-27">
          <mxGeometry y="52" width="160" height="26" as="geometry" />
        </mxCell>
        <mxCell id="h4ecDFKgE0Bomy6enVEB-32" value="orders: List&amp;lt;Order&amp;gt;" style="text;strokeColor=none;fillColor=none;align=left;verticalAlign=top;spacingLeft=4;spacingRight=4;overflow=hidden;rotatable=0;points=[[0,0.5],[1,0.5]];portConstraint=eastwest;whiteSpace=wrap;html=1;" vertex="1" parent="h4ecDFKgE0Bomy6enVEB-27">
          <mxGeometry y="78" width="160" height="26" as="geometry" />
        </mxCell>
        <mxCell id="h4ecDFKgE0Bomy6enVEB-29" value="" style="line;strokeWidth=1;fillColor=none;align=left;verticalAlign=middle;spacingTop=-1;spacingLeft=3;spacingRight=3;rotatable=0;labelPosition=right;points=[];portConstraint=eastwest;strokeColor=inherit;" vertex="1" parent="h4ecDFKgE0Bomy6enVEB-27">
          <mxGeometry y="104" width="160" height="8" as="geometry" />
        </mxCell>
        <mxCell id="h4ecDFKgE0Bomy6enVEB-30" value="addBook(book: Book): void" style="text;strokeColor=none;fillColor=none;align=left;verticalAlign=top;spacingLeft=4;spacingRight=4;overflow=hidden;rotatable=0;points=[[0,0.5],[1,0.5]];portConstraint=eastwest;whiteSpace=wrap;html=1;" vertex="1" parent="h4ecDFKgE0Bomy6enVEB-27">
          <mxGeometry y="112" width="160" height="26" as="geometry" />
        </mxCell>
        <mxCell id="h4ecDFKgE0Bomy6enVEB-33" value="createOrder(title: String): Order" style="text;strokeColor=none;fillColor=none;align=left;verticalAlign=top;spacingLeft=4;spacingRight=4;overflow=hidden;rotatable=0;points=[[0,0.5],[1,0.5]];portConstraint=eastwest;whiteSpace=wrap;html=1;" vertex="1" parent="h4ecDFKgE0Bomy6enVEB-27">
          <mxGeometry y="138" width="160" height="42" as="geometry" />
        </mxCell>
        <mxCell id="h4ecDFKgE0Bomy6enVEB-34" value="cancelOrder(order: Order): void" style="text;strokeColor=none;fillColor=none;align=left;verticalAlign=top;spacingLeft=4;spacingRight=4;overflow=hidden;rotatable=0;points=[[0,0.5],[1,0.5]];portConstraint=eastwest;whiteSpace=wrap;html=1;" vertex="1" parent="h4ecDFKgE0Bomy6enVEB-27">
          <mxGeometry y="180" width="160" height="42" as="geometry" />
        </mxCell>
        <mxCell id="h4ecDFKgE0Bomy6enVEB-35" value="completeOrder(order: Order): void" style="text;strokeColor=none;fillColor=none;align=left;verticalAlign=top;spacingLeft=4;spacingRight=4;overflow=hidden;rotatable=0;points=[[0,0.5],[1,0.5]];portConstraint=eastwest;whiteSpace=wrap;html=1;" vertex="1" parent="h4ecDFKgE0Bomy6enVEB-27">
          <mxGeometry y="222" width="160" height="48" as="geometry" />
        </mxCell>
        <mxCell id="h4ecDFKgE0Bomy6enVEB-36" value="addBookToStock(title: String): void" style="text;strokeColor=none;fillColor=none;align=left;verticalAlign=top;spacingLeft=4;spacingRight=4;overflow=hidden;rotatable=0;points=[[0,0.5],[1,0.5]];portConstraint=eastwest;whiteSpace=wrap;html=1;" vertex="1" parent="h4ecDFKgE0Bomy6enVEB-27">
          <mxGeometry y="270" width="160" height="50" as="geometry" />
        </mxCell>
        <mxCell id="h4ecDFKgE0Bomy6enVEB-37" value="removeBookFromStock(title: String): void" style="text;strokeColor=none;fillColor=none;align=left;verticalAlign=top;spacingLeft=4;spacingRight=4;overflow=hidden;rotatable=0;points=[[0,0.5],[1,0.5]];portConstraint=eastwest;whiteSpace=wrap;html=1;" vertex="1" parent="h4ecDFKgE0Bomy6enVEB-27">
          <mxGeometry y="320" width="160" height="42" as="geometry" />
        </mxCell>
        <mxCell id="h4ecDFKgE0Bomy6enVEB-38" value="showStatus(): void" style="text;strokeColor=none;fillColor=none;align=left;verticalAlign=top;spacingLeft=4;spacingRight=4;overflow=hidden;rotatable=0;points=[[0,0.5],[1,0.5]];portConstraint=eastwest;whiteSpace=wrap;html=1;" vertex="1" parent="h4ecDFKgE0Bomy6enVEB-27">
          <mxGeometry y="362" width="160" height="34" as="geometry" />
        </mxCell>
        <mxCell id="h4ecDFKgE0Bomy6enVEB-39" value="- findBook(title: String): Book" style="text;strokeColor=none;fillColor=none;align=left;verticalAlign=top;spacingLeft=4;spacingRight=4;overflow=hidden;rotatable=0;points=[[0,0.5],[1,0.5]];portConstraint=eastwest;whiteSpace=wrap;html=1;" vertex="1" parent="h4ecDFKgE0Bomy6enVEB-27">
          <mxGeometry y="396" width="160" height="44" as="geometry" />
        </mxCell>
        <mxCell id="h4ecDFKgE0Bomy6enVEB-43" style="edgeStyle=orthogonalEdgeStyle;rounded=0;orthogonalLoop=1;jettySize=auto;html=1;exitX=0.5;exitY=0;exitDx=0;exitDy=0;strokeWidth=2;endArrow=ERone;endFill=0;" edge="1" parent="1" source="h4ecDFKgE0Bomy6enVEB-13">
          <mxGeometry relative="1" as="geometry">
            <mxPoint x="-5820" y="-2104" as="targetPoint" />
            <Array as="points">
              <mxPoint x="-4930" y="-2330" />
              <mxPoint x="-5840" y="-2330" />
              <mxPoint x="-5840" y="-2104" />
            </Array>
          </mxGeometry>
        </mxCell>
        <mxCell id="h4ecDFKgE0Bomy6enVEB-44" style="edgeStyle=orthogonalEdgeStyle;rounded=0;orthogonalLoop=1;jettySize=auto;html=1;exitX=0.5;exitY=0;exitDx=0;exitDy=0;entryX=1;entryY=0.062;entryDx=0;entryDy=0;entryPerimeter=0;strokeWidth=2;endArrow=ERone;endFill=0;startArrow=baseDash;startFill=0;" edge="1" parent="1" source="h4ecDFKgE0Bomy6enVEB-22" target="h4ecDFKgE0Bomy6enVEB-1">
          <mxGeometry relative="1" as="geometry">
            <Array as="points">
              <mxPoint x="-5080" y="-1753" />
              <mxPoint x="-5320" y="-1753" />
              <mxPoint x="-5320" y="-1730" />
              <mxPoint x="-5620" y="-1730" />
              <mxPoint x="-5620" y="-2101" />
            </Array>
          </mxGeometry>
        </mxCell>
      </root>
    </mxGraphModel>
  </diagram>
</mxfile>
